{
    "asset" : {
        "generator" : "Khronos glTF Blender I/O v1.5.17",
        "version" : "2.0"
    },
    "scene" : 0,
    "scenes" : [
        {
            "name" : "Scene",
            "nodes" : [
                0,
                1,
                2,
                3
            ]
        }
    ],
    "nodes" : [
        {
            "name" : "Light",
            "rotation" : [
                0.16907575726509094,
                0.7558803558349609,
                -0.27217137813568115,
                0.570947527885437
            ],
            "translation" : [
                4.076245307922363,
                5.903861999511719,
                -1.0054539442062378
            ]
        },
        {
            "name" : "Camera",
            "translation" : [
                0,
                0,
                10
            ]
        },
        {
            "mesh" : 0,
            "name" : "Octocat",
            "rotation" : [
                0.7071068286895752,
                0,
                0,
                0.7071067094802856
            ],
            "translation" : [
                -3.8425283432006836,
                6.192652225494385,
                3.8425283432006836
            ]
        },
        {
            "mesh" : 1,
            "name" : "Octocat.001",
            "rotation" : [
                0.7071068286895752,
                0,
                0,
                0.7071067094802856
            ],
            "translation" : [
                -3.907670259475708,
                6.192652225494385,
                3.837790012359619
            ]
        }
    ],
    "materials" : [
        {
            "doubleSided" : true,
            "name" : "octocat19:lambert2SG",
            "pbrMetallicRoughness" : {
                "baseColorFactor" : [
                    0.6634612679481506,
                    0.5564684867858887,
                    0.3267908990383148,
                    1
                ],
                "metallicFactor" : 0.6280992031097412
            }
        },
        {
            "doubleSided" : true,
            "name" : "octocat19:lambert5SG",
            "pbrMetallicRoughness" : {
                "baseColorFactor" : [
                    0.7300000190734863,
                    0.5417278409004211,
                    0.3350389003753662,
                    1
                ],
                "metallicFactor" : 0.5289255976676941
            }
        },
        {
            "doubleSided" : true,
            "name" : "octocat19:lambert3SG",
            "pbrMetallicRoughness" : {
                "baseColorFactor" : [
                    0.05000000074505806,
                    0.05000000074505806,
                    0.05999999865889549,
                    1
                ],
                "metallicFactor" : 0.5785123705863953
            }
        },
        {
            "doubleSided" : true,
            "name" : "octocat19:lambert4SG",
            "pbrMetallicRoughness" : {
                "baseColorFactor" : [
                    0.6499999165534973,
                    0.6362583637237549,
                    0.5960573554039001,
                    1
                ],
                "metallicFactor" : 0.4958677589893341
            }
        },
        {
            "doubleSided" : true,
            "name" : "Material.003",
            "pbrMetallicRoughness" : {
                "baseColorFactor" : [
                    0,
                    0,
                    0,
                    1
                ],
                "metallicFactor" : 0.42975205183029175,
                "roughnessFactor" : 0.5
            }
        },
        {
            "doubleSided" : true,
            "name" : "Material.001",
            "pbrMetallicRoughness" : {
                "baseColorFactor" : [
                    0.8000000715255737,
                    0,
                    0.004701167810708284,
                    1
                ],
                "metallicFactor" : 0.71074378490448,
                "roughnessFactor" : 0.38429751992225647
            }
        },
        {
            "doubleSided" : true,
            "name" : "Material.002",
            "pbrMetallicRoughness" : {
                "baseColorFactor" : [
                    0,
                    0,
                    0,
                    1
                ],
                "metallicFactor" : 0,
                "roughnessFactor" : 0.5
            }
        }
    ],
    "meshes" : [
        {
            "name" : "Octocat",
            "primitives" : [
                {
                    "attributes" : {
                        "POSITION" : 0,
                        "NORMAL" : 1,
                        "TEXCOORD_0" : 2
                    },
                    "indices" : 3,
                    "material" : 0
                },
                {
                    "attributes" : {
                        "POSITION" : 4,
                        "NORMAL" : 5,
                        "TEXCOORD_0" : 6
                    },
                    "indices" : 7,
                    "material" : 1
                },
                {
                    "attributes" : {
                        "POSITION" : 8,
                        "NORMAL" : 9,
                        "TEXCOORD_0" : 10
                    },
                    "indices" : 11,
                    "material" : 2
                },
                {
                    "attributes" : {
                        "POSITION" : 12,
                        "NORMAL" : 13,
                        "TEXCOORD_0" : 14
                    },
                    "indices" : 15,
                    "material" : 3
                },
                {
                    "attributes" : {
                        "POSITION" : 16,
                        "NORMAL" : 17,
                        "TEXCOORD_0" : 18
                    },
                    "indices" : 19,
                    "material" : 4
                }
            ]
        },
        {
            "name" : "Octocat.001",
            "primitives" : [
                {
                    "attributes" : {
                        "POSITION" : 20,
                        "NORMAL" : 21,
                        "TEXCOORD_0" : 22
                    },
                    "indices" : 23,
                    "material" : 2
                },
                {
                    "attributes" : {
                        "POSITION" : 24,
                        "NORMAL" : 25,
                        "TEXCOORD_0" : 26
                    },
                    "indices" : 27,
                    "material" : 5
                },
                {
                    "attributes" : {
                        "POSITION" : 28,
                        "NORMAL" : 29,
                        "TEXCOORD_0" : 30
                    },
                    "indices" : 31,
                    "material" : 6
                }
            ]
        }
    ],
    "accessors" : [
        {
            "bufferView" : 0,
            "componentType" : 5126,
            "count" : 583,
            "max" : [
                6.9405388832092285,
                -0.35981500148773193,
                0.7506449818611145
            ],
            "min" : [
                0.6497390270233154,
                -1.601928949356079,
                -2.7538139820098877
            ],
            "type" : "VEC3"
        },
        {
            "bufferView" : 1,
            "componentType" : 5126,
            "count" : 583,
            "type" : "VEC3"
        },
        {
            "bufferView" : 2,
            "componentType" : 5126,
            "count" : 583,
            "type" : "VEC2"
        },
        {
            "bufferView" : 3,
            "componentType" : 5123,
            "count" : 2658,
            "type" : "SCALAR"
        },
        {
            "bufferView" : 4,
            "componentType" : 5126,
            "count" : 47,
            "max" : [
                4.030511856079102,
                -0.2723560035228729,
                -0.3312250077724457
            ],
            "min" : [
                3.5907750129699707,
                -0.38629499077796936,
                -0.7291020154953003
            ],
            "type" : "VEC3"
        },
        {
            "bufferView" : 5,
            "componentType" : 5126,
            "count" : 47,
            "type" : "VEC3"
        },
        {
            "bufferView" : 6,
            "componentType" : 5126,
            "count" : 47,
            "type" : "VEC2"
        },
        {
            "bufferView" : 7,
            "componentType" : 5123,
            "count" : 228,
            "type" : "SCALAR"
        },
        {
            "bufferView" : 8,
            "componentType" : 5126,
            "count" : 4812,
            "max" : [
                10.38833236694336,
                -0.378277987241745,
                6.0035881996154785
            ],
            "min" : [
                -2.7309019565582275,
                -7.175249099731445,
                -6.282830238342285
            ],
            "type" : "VEC3"
        },
        {
            "bufferView" : 9,
            "componentType" : 5126,
            "count" : 4812,
            "type" : "VEC3"
        },
        {
            "bufferView" : 10,
            "componentType" : 5126,
            "count" : 4812,
            "type" : "VEC2"
        },
        {
            "bufferView" : 11,
            "componentType" : 5123,
            "count" : 24240,
            "type" : "SCALAR"
        },
        {
            "bufferView" : 12,
            "componentType" : 5126,
            "count" : 3250,
            "max" : [
                5.758892059326172,
                -1.9116040468215942,
                6.032771110534668
            ],
            "min" : [
                -1.128967046737671,
                -6.224857807159424,
                1.5769870281219482
            ],
            "type" : "VEC3"
        },
        {
            "bufferView" : 13,
            "componentType" : 5126,
            "count" : 3250,
            "type" : "VEC3"
        },
        {
            "bufferView" : 14,
            "componentType" : 5126,
            "count" : 3250,
            "type" : "VEC2"
        },
        {
            "bufferView" : 15,
            "componentType" : 5123,
            "count" : 14976,
            "type" : "SCALAR"
        },
        {
            "bufferView" : 16,
            "componentType" : 5126,
            "count" : 12,
            "max" : [
                4.710636138916016,
                -0.711974561214447,
                0.24938297271728516
            ],
            "min" : [
                3.225710153579712,
                -0.7544874548912048,
                0.2058337926864624
            ],
            "type" : "VEC3"
        },
        {
            "bufferView" : 17,
            "componentType" : 5126,
            "count" : 12,
            "type" : "VEC3"
        },
        {
            "bufferView" : 18,
            "componentType" : 5126,
            "count" : 12,
            "type" : "VEC2"
        },
        {
            "bufferView" : 19,
            "componentType" : 5123,
            "count" : 30,
            "type" : "SCALAR"
        },
        {
            "bufferView" : 20,
            "componentType" : 5126,
            "count" : 1006,
            "max" : [
                6.3078131675720215,
                -0.637216329574585,
                -0.11678194999694824
            ],
            "min" : [
                1.5075273513793945,
                -1.936269998550415,
                -2.446134090423584
            ],
            "type" : "VEC3"
        },
        {
            "bufferView" : 21,
            "componentType" : 5126,
            "count" : 1006,
            "type" : "VEC3"
        },
        {
            "bufferView" : 22,
            "componentType" : 5126,
            "count" : 1006,
            "type" : "VEC2"
        },
        {
            "bufferView" : 23,
            "componentType" : 5123,
            "count" : 4752,
            "type" : "SCALAR"
        },
        {
            "bufferView" : 24,
            "componentType" : 5126,
            "count" : 666,
            "max" : [
                6.157390594482422,
                -0.6049140095710754,
                -0.6556359529495239
            ],
            "min" : [
                1.6579499244689941,
                -0.8804270029067993,
                -1.9202942848205566
            ],
            "type" : "VEC3"
        },
        {
            "bufferView" : 25,
            "componentType" : 5126,
            "count" : 666,
            "type" : "VEC3"
        },
        {
            "bufferView" : 26,
            "componentType" : 5126,
            "count" : 666,
            "type" : "VEC2"
        },
        {
            "bufferView" : 27,
            "componentType" : 5123,
            "count" : 2142,
            "type" : "SCALAR"
        },
        {
            "bufferView" : 28,
            "componentType" : 5126,
            "count" : 480,
            "max" : [
                5.954316139221191,
                -0.6049140095710754,
                -0.9094293713569641
            ],
            "min" : [
                1.8610243797302246,
                -0.7209559679031372,
                -1.7819182872772217
            ],
            "type" : "VEC3"
        },
        {
            "bufferView" : 29,
            "componentType" : 5126,
            "count" : 480,
            "type" : "VEC3"
        },
        {
            "bufferView" : 30,
            "componentType" : 5126,
            "count" : 480,
            "type" : "VEC2"
        },
        {
            "bufferView" : 31,
            "componentType" : 5123,
            "count" : 1494,
            "type" : "SCALAR"
        }
    ],
    "bufferViews" : [
        {
            "buffer" : 0,
            "byteLength" : 6996,
            "byteOffset" : 0
        },
        {
            "buffer" : 0,
            "byteLength" : 6996,
            "byteOffset" : 6996
        },
        {
            "buffer" : 0,
            "byteLength" : 4664,
            "byteOffset" : 13992
        },
        {
            "buffer" : 0,
            "byteLength" : 5316,
            "byteOffset" : 18656
        },
        {
            "buffer" : 0,
            "byteLength" : 564,
            "byteOffset" : 23972
        },
        {
            "buffer" : 0,
            "byteLength" : 564,
            "byteOffset" : 24536
        },
        {
            "buffer" : 0,
            "byteLength" : 376,
            "byteOffset" : 25100
        },
        {
            "buffer" : 0,
            "byteLength" : 456,
            "byteOffset" : 25476
        },
        {
            "buffer" : 0,
            "byteLength" : 57744,
            "byteOffset" : 25932
        },
        {
            "buffer" : 0,
            "byteLength" : 57744,
            "byteOffset" : 83676
        },
        {
            "buffer" : 0,
            "byteLength" : 38496,
            "byteOffset" : 141420
        },
        {
            "buffer" : 0,
            "byteLength" : 48480,
            "byteOffset" : 179916
        },
        {
            "buffer" : 0,
            "byteLength" : 39000,
            "byteOffset" : 228396
        },
        {
            "buffer" : 0,
            "byteLength" : 39000,
            "byteOffset" : 267396
        },
        {
            "buffer" : 0,
            "byteLength" : 26000,
            "byteOffset" : 306396
        },
        {
            "buffer" : 0,
            "byteLength" : 29952,
            "byteOffset" : 332396
        },
        {
            "buffer" : 0,
            "byteLength" : 144,
            "byteOffset" : 362348
        },
        {
            "buffer" : 0,
            "byteLength" : 144,
            "byteOffset" : 362492
        },
        {
            "buffer" : 0,
            "byteLength" : 96,
            "byteOffset" : 362636
        },
        {
            "buffer" : 0,
            "byteLength" : 60,
            "byteOffset" : 362732
        },
        {
            "buffer" : 0,
            "byteLength" : 12072,
            "byteOffset" : 362792
        },
        {
            "buffer" : 0,
            "byteLength" : 12072,
            "byteOffset" : 374864
        },
        {
            "buffer" : 0,
            "byteLength" : 8048,
            "byteOffset" : 386936
        },
        {
            "buffer" : 0,
            "byteLength" : 9504,
            "byteOffset" : 394984
        },
        {
            "buffer" : 0,
            "byteLength" : 7992,
            "byteOffset" : 404488
        },
        {
            "buffer" : 0,
            "byteLength" : 7992,
            "byteOffset" : 412480
        },
        {
            "buffer" : 0,
            "byteLength" : 5328,
            "byteOffset" : 420472
        },
        {
            "buffer" : 0,
            "byteLength" : 4284,
            "byteOffset" : 425800
        },
        {
            "buffer" : 0,
            "byteLength" : 5760,
            "byteOffset" : 430084
        },
        {
            "buffer" : 0,
            "byteLength" : 5760,
            "byteOffset" : 435844
        },
        {
            "buffer" : 0,
            "byteLength" : 3840,
            "byteOffset" : 441604
        },
        {
            "buffer" : 0,
            "byteLength" : 2988,
            "byteOffset" : 445444
        }
    ],
    "buffers" : [
        {
            "byteLength" : 448432,
            "uri" : "data:application/octet-stream;base64,"
        }
    ]
}
